<svg width="80" height="80" viewBox="0 0 80 80" fill="none" xmlns="http://www.w3.org/2000/svg">
<path d="M48.9525 38.375L21.28 33.5V69.5225C21.2797 69.914 21.3567 70.3018 21.5065 70.6635C21.6563 71.0252 21.8761 71.3538 22.1532 71.6304C22.4302 71.907 22.7592 72.1262 23.1212 72.2755C23.4831 72.4247 23.871 72.501 24.2625 72.5H72.0125C72.4045 72.5016 72.7929 72.4258 73.1554 72.2769C73.518 72.128 73.8475 71.9089 74.1251 71.6322C74.4028 71.3555 74.623 71.0267 74.7731 70.6646C74.9232 70.3026 75.0004 69.9144 75 69.5225V56.25L48.9525 38.375Z" fill="#185C37"/>
<path d="M48.9525 7.50001H24.2625C23.871 7.49902 23.4831 7.57533 23.1212 7.72455C22.7592 7.87377 22.4302 8.09298 22.1532 8.36959C21.8761 8.64621 21.6563 8.9748 21.5065 9.33652C21.3567 9.69825 21.2797 10.086 21.28 10.4775V23.75L48.9525 40L63.605 44.875L75 40V23.75L48.9525 7.50001Z" fill="#21A366"/>
<path d="M21.28 23.75H48.9525V40H21.28V23.75Z" fill="#107C41"/>
<path opacity="0.1" d="M41.085 20.5H21.28V61.125H41.085C41.8742 61.1211 42.63 60.8064 43.1888 60.249C43.7475 59.6917 44.0641 58.9367 44.07 58.1475V23.4775C44.0641 22.6883 43.7475 21.9333 43.1888 21.376C42.63 20.8186 41.8742 20.5039 41.085 20.5Z" fill="black"/>
<path opacity="0.2" d="M39.4575 22.125H21.28V62.75H39.4575C40.2467 62.7461 41.0025 62.4314 41.5613 61.874C42.12 61.3167 42.4366 60.5617 42.4425 59.7725V25.1025C42.4366 24.3133 42.12 23.5583 41.5613 23.001C41.0025 22.4436 40.2467 22.1289 39.4575 22.125Z" fill="black"/>
<path opacity="0.2" d="M39.4575 22.125H21.28V59.5H39.4575C40.2467 59.4961 41.0025 59.1814 41.5613 58.624C42.12 58.0667 42.4366 57.3117 42.4425 56.5225V25.1025C42.4366 24.3133 42.12 23.5583 41.5613 23.001C41.0025 22.4436 40.2467 22.1289 39.4575 22.125Z" fill="black"/>
<path opacity="0.2" d="M37.83 22.125H21.28V59.5H37.83C38.6192 59.4961 39.375 59.1814 39.9338 58.624C40.4925 58.0667 40.8091 57.3117 40.815 56.5225V25.1025C40.8091 24.3133 40.4925 23.5583 39.9338 23.001C39.375 22.4436 38.6192 22.1289 37.83 22.125Z" fill="black"/>
<path d="M7.985 22.125H37.83C38.6206 22.1244 39.3791 22.4376 39.9388 22.9959C40.4985 23.5542 40.8137 24.3119 40.815 25.1025V54.8975C40.8137 55.6881 40.4985 56.4458 39.9388 57.0041C39.3791 57.5624 38.6206 57.8757 37.83 57.875H7.985C7.59327 57.8763 7.20513 57.8003 6.84287 57.6512C6.48061 57.5021 6.15135 57.283 5.874 57.0063C5.59666 56.7297 5.37668 56.401 5.22669 56.0391C5.07671 55.6772 4.99967 55.2893 5 54.8975V25.1025C4.99967 24.7108 5.07671 24.3228 5.22669 23.9609C5.37668 23.5991 5.59666 23.2704 5.874 22.9937C6.15135 22.7171 6.48061 22.4979 6.84287 22.3488C7.20513 22.1998 7.59327 22.1237 7.985 22.125Z" fill="url(#paint0_linear_62_13)"/>
<path d="M14.25 49.6825L20.5275 39.9725L14.7775 30.3175H19.395L22.5325 36.5C22.8225 37.085 23.0325 37.52 23.1275 37.81H23.17C23.375 37.3417 23.5917 36.8867 23.82 36.445L27.175 30.3275H31.425L25.5275 39.9275L31.575 49.69H27.0525L23.4275 42.9125C23.2597 42.6209 23.1167 42.3156 23 42H22.94C22.834 42.3076 22.6931 42.602 22.52 42.8775L18.7875 49.6825H14.25Z" fill="white"/>
<path d="M72.015 7.50002H48.9525V23.75H75V10.4775C75.0003 10.0858 74.9233 9.69784 74.7733 9.33595C74.6233 8.97406 74.4034 8.64536 74.126 8.36871C73.8487 8.09206 73.5194 7.87291 73.1572 7.72384C72.7949 7.57476 72.4067 7.4987 72.015 7.50002Z" fill="#33C481"/>
<path d="M48.9525 40H75V56.25H48.9525V40Z" fill="#107C41"/>
<defs>
<linearGradient id="paint0_linear_62_13" x1="11.235" y1="19.785" x2="34.58" y2="60.215" gradientUnits="userSpaceOnUse">
<stop stop-color="#18884F"/>
<stop offset="0.5" stop-color="#117E43"/>
<stop offset="1" stop-color="#0B6631"/>
</linearGradient>
</defs>
</svg>
