<svg width="80" height="80" viewBox="0 0 80 80" fill="none" xmlns="http://www.w3.org/2000/svg">
<path d="M63.5894 0.205811L79.7932 16.7772V79.7943H19.2618V80H80V16.9858L63.5894 0.205811Z" fill="#909090"/>
<path d="M63.3884 0H19.055V79.7942H79.7932V16.78L63.3884 0Z" fill="#F4F4F4"/>
<path d="M18.6094 4.28577H0V23.7915H58.5366V4.28577H18.6094Z" fill="#7A7B7C"/>
<path d="M58.8482 23.4601H0.378662V3.94006H58.8482V23.4601Z" fill="#DD2025"/>
<path d="M19.7656 7.2401H15.9593V20.9544H18.9531V16.3287L19.6142 16.3658C20.2568 16.3571 20.8934 16.2442 21.4984 16.0315C22.0303 15.8544 22.5191 15.5713 22.9342 15.2001C23.3598 14.8499 23.6943 14.4053 23.9098 13.903C24.2046 13.0707 24.309 12.185 24.2156 11.3087C24.199 10.6825 24.0871 10.0624 23.8836 9.46867C23.7002 9.03955 23.4275 8.65272 23.083 8.33293C22.7385 8.01314 22.3297 7.76743 21.8828 7.61153C21.4976 7.47155 21.0983 7.37195 20.6917 7.31439C20.3846 7.26532 20.0739 7.24047 19.7627 7.2401M19.2123 13.7944H18.9531V9.56581H19.5152C19.7632 9.54826 20.0121 9.58562 20.2435 9.67513C20.4749 9.76465 20.6828 9.90402 20.8519 10.083C21.2023 10.543 21.3895 11.103 21.3848 11.6772C21.3848 12.3801 21.3848 13.0172 20.7383 13.4658C20.2727 13.7174 19.7424 13.8335 19.2123 13.7944ZM29.9032 7.20296C29.58 7.20296 29.2654 7.22582 29.0441 7.23439L28.351 7.25153H26.0794V20.9658H28.7529C29.7744 20.9916 30.7913 20.8217 31.7467 20.4658C32.5159 20.1678 33.1967 19.6855 33.727 19.0629C34.2467 18.4377 34.6178 17.7066 34.8133 16.923C35.043 16.037 35.1546 15.1256 35.1453 14.2115C35.2023 13.132 35.1172 12.0497 34.8919 10.9915C34.6763 10.2135 34.2773 9.4961 33.727 8.89724C33.2954 8.41299 32.7645 8.02355 32.169 7.75439C31.6588 7.52239 31.122 7.35163 30.5701 7.24581C30.3507 7.21052 30.1285 7.19427 29.9061 7.19724M29.3761 18.4458H29.0849V9.69153H29.1227C29.7231 9.62342 30.3307 9.72972 30.8701 9.99724C31.2652 10.3067 31.5871 10.6967 31.8137 11.1401C32.0582 11.6068 32.1991 12.119 32.2272 12.643C32.2534 13.2715 32.2272 13.7858 32.2272 14.2115C32.238 14.7019 32.2058 15.1923 32.1311 15.6772C32.0395 16.1746 31.8736 16.6559 31.6389 17.1058C31.3738 17.5254 31.0116 17.8777 30.5818 18.1344C30.2227 18.363 29.797 18.4694 29.3703 18.4372M44.1646 7.25153H37.0878V20.9658H40.0816V15.5258H43.8675V12.9772H40.0816V9.8001H44.1588V7.25153" fill="#464648"/>
<path d="M56.8358 52.1571C56.8358 52.1571 66.1201 50.5057 66.1201 53.6171C66.1201 56.7285 60.3684 55.4628 56.8358 52.1571ZM49.9716 52.3942C48.4963 52.7132 47.0587 53.1814 45.6818 53.7914L46.8467 51.22C48.0116 48.6485 49.2202 45.1428 49.2202 45.1428C50.6068 47.4403 52.2244 49.5958 54.0488 51.5771C52.6754 51.7778 51.3142 52.0525 49.9716 52.4V52.3942ZM46.2963 33.8228C46.2963 31.1114 47.1904 30.3714 47.8864 30.3714C48.5824 30.3714 49.3658 30.7 49.3921 33.0543C49.165 35.4215 48.6597 37.7551 47.8864 40.0085C46.8235 38.1179 46.2749 35.9905 46.2934 33.8314L46.2963 33.8228ZM32.7572 63.8685C29.909 62.1971 38.7302 57.0514 40.3291 56.8857C40.3203 56.8885 35.7393 65.6171 32.7572 63.8685ZM68.8314 53.9857C68.8023 53.7 68.5402 50.5371 62.803 50.6714C60.4116 50.6303 58.0211 50.7957 55.6593 51.1657C53.3699 48.9049 51.3992 46.3537 49.7998 43.58C50.8068 40.7208 51.4171 37.7417 51.6141 34.7228C51.5297 31.2943 50.6938 29.3285 48.0146 29.3571C45.3353 29.3857 44.945 31.6857 45.2974 35.1085C45.6423 37.4087 46.2934 39.6546 47.2341 41.7885C47.2341 41.7885 45.9963 45.5685 44.3597 49.3285C42.723 53.0885 41.6047 55.06 41.6047 55.06C38.7581 55.9679 36.0787 57.3184 33.6687 59.06C31.269 61.2514 30.2934 62.9342 31.5573 64.6171C32.6465 66.0685 36.4587 66.3971 39.866 62.0171C41.6734 59.7526 43.3272 57.3742 44.8169 54.8971C44.8169 54.8971 50.0124 53.5 51.6287 53.1171C53.245 52.7342 55.1991 52.4314 55.1991 52.4314C55.1991 52.4314 59.9432 57.1142 64.5184 56.9485C69.0935 56.7828 68.8722 54.2657 68.8431 53.9914" fill="#DD2025"/>
<path d="M63.1642 0.219971V17H79.569L63.1642 0.219971Z" fill="#909090"/>
<path d="M63.3884 0V16.78H79.7932L63.3884 0Z" fill="#F4F4F4"/>
<path d="M19.5414 7.02001H15.735V20.7343H18.7405V16.1114L19.4045 16.1486C20.0471 16.1399 20.6838 16.0269 21.2887 15.8143C21.8206 15.6371 22.3094 15.3541 22.7245 14.9829C23.147 14.6317 23.4784 14.1871 23.6914 13.6857C23.9862 12.8535 24.0906 11.9677 23.9971 11.0914C23.9805 10.4653 23.8686 9.84511 23.6651 9.25144C23.4818 8.82232 23.2091 8.43549 22.8646 8.11569C22.5201 7.7959 22.1113 7.55019 21.6644 7.39429C21.2774 7.25295 20.8762 7.15238 20.4675 7.09429C20.1603 7.04522 19.8497 7.02038 19.5385 7.02001M18.988 13.5743H18.7289V9.34572H19.2938C19.5419 9.32817 19.7908 9.36553 20.0222 9.45504C20.2536 9.54455 20.4615 9.68393 20.6306 9.86286C20.981 10.3229 21.1682 10.8829 21.1635 11.4571C21.1635 12.16 21.1635 12.7971 20.517 13.2457C20.0513 13.4974 19.5211 13.6105 18.991 13.5714M29.679 6.98287C29.3557 6.98287 29.0412 7.00572 28.8199 7.01429L28.1355 7.03144H25.8639V20.7457H28.5374C29.5589 20.7715 30.5758 20.6017 31.5312 20.2457C32.3004 19.9477 32.9812 19.4654 33.5115 18.8429C34.0312 18.2176 34.4023 17.4865 34.5978 16.7029C34.8275 15.8169 34.9391 14.9055 34.9298 13.9914C34.9868 12.9119 34.9016 11.8296 34.6764 10.7714C34.4608 9.99341 34.0618 9.27601 33.5115 8.67715C33.0799 8.19289 32.549 7.80346 31.9535 7.53429C31.4433 7.30229 30.9065 7.13153 30.3546 7.02572C30.1352 6.99043 29.913 6.97418 29.6906 6.97715M29.1606 18.2257H28.8694V9.47144H28.9072C29.5076 9.40332 30.1152 9.50962 30.6546 9.77715C31.0497 10.0867 31.3716 10.4766 31.5982 10.92C31.8427 11.3867 31.9836 11.8989 32.0117 12.4229C32.0379 13.0514 32.0117 13.5657 32.0117 13.9914C32.0225 14.4818 31.9903 14.9722 31.9156 15.4571C31.824 15.9545 31.6581 16.4358 31.4234 16.8857C31.1583 17.3053 30.7961 17.6576 30.3663 17.9143C30.0072 18.1429 29.5815 18.2493 29.1548 18.2171M43.9403 7.03144H36.8635V20.7457H39.8573V15.3057H43.6433V12.7571H39.8573V9.58001H43.9345V7.03144" fill="white"/>
</svg>
