<svg width="103" height="99" viewBox="0 0 103 99" fill="none" xmlns="http://www.w3.org/2000/svg">
<path d="M50.9981 79.9958C73.0884 79.9958 90.996 62.0881 90.996 39.9979C90.996 17.9077 73.0884 0 50.9981 0C28.9079 0 11.0002 17.9077 11.0002 39.9979C11.0002 62.0881 28.9079 79.9958 50.9981 79.9958Z" fill="url(#paint0_radial_112_60)"/>
<path d="M64.6392 9.17186C64.8715 8.93961 73.6567 8.48016 73.6567 8.24791C73.6567 7.78341 67.1839 8.01566 64.6392 8.24791C65.8005 7.78341 70.1931 6.39999 70.1931 5.93548C70.1931 5.47098 62.5692 8.01566 61.6402 8.24791C54.9351 2.69405 48.5129 0.386671 42.6813 0.154419C39.6772 0.846127 36.673 2.00234 33.8961 3.15855C40.6011 1.77008 48.2352 2.23459 56.3236 6.62719C43.1963 2.46684 31.8159 4.77927 23.7224 10.0958C18.6381 14.9529 15.1695 20.734 13.0843 27.439C20.0216 12.8728 35.5118 3.3908 55.8591 8.01565C26.9588 7.09169 14.2405 26.7473 11.6958 44.7721C12.6198 51.0126 14.9271 56.7887 18.6331 61.8881C12.1603 41.5408 21.8644 11.0198 56.3186 9.17692C19.5621 16.5737 16.5479 55.4254 27.8777 70.9106C31.1091 73.223 35.0473 75.3032 38.9754 76.6917C22.3289 65.3618 23.7174 20.2745 57.4748 10.3331C27.181 24.6722 28.11 69.2949 47.3011 78.7718C48.5256 78.9574 49.7639 79.0351 51.002 79.0041C53.409 79.0145 55.8109 78.7827 58.1715 78.3124C38.2887 71.3751 29.7307 25.3639 60.7162 10.3331L61.6402 11.2571C65.5784 14.2612 73.4345 22.3547 73.894 22.1225C74.3534 21.8902 66.9567 14.4985 64.1848 11.4843C67.8857 13.1 75.7975 17.4926 75.9792 17.2654C76.161 17.0382 68.3553 12.181 64.1848 10.0958C68.3452 10.7875 75.9792 12.4083 75.9792 12.176C76.4437 11.7115 69.2742 10.0958 64.6493 9.17186H64.6392Z" fill="url(#paint1_radial_112_60)"/>
<path d="M4.63659 72.2477L6.07747 71.0339L8.80659 74.2736L7.36571 75.4874L4.63659 72.2477ZM9.62003 68.0497L11.0609 66.8359L13.79 70.0756L12.3491 71.2894L9.62003 68.0497ZM7.27974 70.0211L8.67474 68.846L11.2492 71.9021L9.85423 73.0773L7.27974 70.0211ZM10.0404 65.6244L11.4784 67.3315L5.05407 72.7433L3.61607 71.0363L10.0404 65.6244Z" fill="#F5260A"/>
<path d="M16.9363 79.0378L14.3012 81.9024L12.2938 80.4597L18.6204 74.1449L18.7603 80.201L24.5547 78.41L20.5863 86.4195L18.579 84.9768L20.454 81.566L16.8904 82.8027L16.9363 79.0378Z" fill="#F5260A"/>
<path d="M28.3285 88.6457L29.0115 87.0698L33.0326 88.6159L32.4727 90.2391L28.3285 88.6457ZM31.6702 86.0736L29.7353 88.0295L29.6846 88.5628L28.0883 90.0061L25.6241 89.0586L33.1086 82.3326L34.1702 92.3446L31.706 91.3971L31.4689 89.3389L31.8075 88.8263L31.6702 86.0736Z" fill="#F5260A"/>
<path d="M41.4426 85.3233L43.784 85.727L42.3568 94.0048L40.0154 93.6012L41.4426 85.3233Z" fill="#F5260A"/>
<path d="M49.075 86.2824L51.4029 86.2625L51.4577 92.6823L54.8536 92.6533L54.8705 94.6332L49.1467 94.6821L49.075 86.2824Z" fill="#F5260A"/>
<path d="M72.0593 89.5182L71.4554 87.9104L75.4213 86.2279L76.1467 87.7842L72.0593 89.5182ZM72.675 85.3465L72.6428 88.0975L72.9769 88.5163L72.8319 90.6634L70.4016 91.6945L71.1097 81.6568L78.8304 88.1187L76.4001 89.1497L74.7993 87.8344L74.6865 87.2305L72.675 85.3465Z" fill="#F5260A"/>
<path d="M85.6309 80.1084L84.5986 78.7227L88.0919 76.1204C88.5478 76.6387 88.8868 77.1942 89.1089 77.7869C89.3309 78.3797 89.4274 78.9712 89.3983 79.5615C89.3692 80.1518 89.2057 80.7225 88.9079 81.2735C88.6053 81.8181 88.1589 82.3103 87.5687 82.75C87.0234 83.1562 86.4552 83.4447 85.8643 83.6156C85.2797 83.7817 84.7004 83.8342 84.1261 83.7731C83.5536 83.7009 83.0094 83.5127 82.4936 83.2086C81.973 82.8981 81.512 82.4734 81.1105 81.9345C80.7091 81.3956 80.4421 80.8363 80.3096 80.2567C80.1771 79.6771 80.1693 79.1042 80.2864 78.5382C80.3986 77.9658 80.6292 77.4249 80.9781 76.9157C81.3222 76.4 81.7669 75.939 82.3122 75.5328C82.8062 75.1648 83.3006 74.9112 83.7955 74.772C84.292 74.6216 84.781 74.5616 85.2625 74.592C85.7392 74.616 86.2037 74.7039 86.656 74.8557L85.562 76.9426C85.2457 76.7992 84.9131 76.7277 84.5643 76.7281C84.2155 76.7286 83.8615 76.8626 83.5022 77.1303C83.1622 77.3836 82.9028 77.6915 82.724 78.0541C82.5452 78.4168 82.4767 78.8069 82.5186 79.2247C82.5668 79.6376 82.7487 80.0558 83.0641 80.4793C83.3747 80.8963 83.7249 81.199 84.1147 81.3875C84.4997 81.5696 84.8931 81.6356 85.2949 81.5857C85.6966 81.5358 86.0836 81.3723 86.4557 81.0951C86.6802 80.9278 86.8624 80.7572 87.0022 80.5833C87.1371 80.4029 87.2353 80.2201 87.2967 80.0347C87.3534 79.8428 87.3788 79.6493 87.373 79.4541C87.3737 79.2541 87.3479 79.0588 87.2957 78.8682L85.6309 80.1084Z" fill="#F5260A"/>
<path d="M95.9101 74.6216L94.4692 73.4078L97.1983 70.1682L98.6392 71.382L95.9101 74.6216ZM90.9266 70.4236L89.4858 69.2098L92.2149 65.9701L93.6558 67.1839L90.9266 70.4236ZM93.2669 72.3951L91.8719 71.2199L94.4464 68.1638L95.8414 69.3389L93.2669 72.3951ZM88.4652 70.4212L89.9032 68.7142L96.3276 74.1261L94.8896 75.8331L88.4652 70.4212Z" fill="#F5260A"/>
<defs>
<radialGradient id="paint0_radial_112_60" cx="0" cy="0" r="1" gradientUnits="userSpaceOnUse" gradientTransform="translate(62.2228 9.32531) scale(58.1471 58.0607)">
<stop offset="0.022" stop-color="#FFF2EE"/>
<stop offset="0.251" stop-color="#F9826D"/>
<stop offset="0.406" stop-color="#F7270A"/>
<stop offset="0.5" stop-color="#E62308"/>
<stop offset="0.966" stop-color="#CF2109"/>
</radialGradient>
<radialGradient id="paint1_radial_112_60" cx="0" cy="0" r="1" gradientUnits="userSpaceOnUse" gradientTransform="translate(60.8895 10.2181) scale(115.982 115.806)">
<stop offset="0.022" stop-color="#FDE6DF"/>
<stop offset="0.64" stop-color="#F84A31"/>
<stop offset="0.843" stop-color="#CF2109"/>
</radialGradient>
</defs>
</svg>
