<svg width="80" height="80" viewBox="0 0 80 80" fill="none" xmlns="http://www.w3.org/2000/svg">
<g clip-path="url(#clip0_86_2)">
<path d="M40.0017 79.999C62.0919 79.999 79.9996 62.0914 79.9996 40.0011C79.9996 17.9109 62.0919 0.00323486 40.0017 0.00323486C17.9114 0.00323486 0.00378418 17.9109 0.00378418 40.0011C0.00378418 62.0914 17.9114 79.999 40.0017 79.999Z" fill="url(#paint0_radial_86_2)"/>
<path d="M53.6389 10.1719C53.8712 9.93961 62.6564 9.48016 62.6564 9.24791C62.6564 8.78341 56.1836 9.01566 53.6389 9.24791C54.8002 8.78341 59.1928 7.39999 59.1928 6.93548C59.1928 6.47098 51.5689 9.01566 50.6399 9.24791C43.9348 3.69405 37.5125 1.38667 31.681 1.15442C28.6769 1.84613 25.6727 3.00234 22.8958 4.15855C29.6008 2.77008 37.2349 3.23459 45.3233 7.62719C32.196 3.46684 20.8156 5.77927 12.7221 11.0958C7.63782 15.9529 4.16919 21.734 2.08397 28.439C9.02124 13.8728 24.5115 4.3908 44.8588 9.01565C15.9585 8.09169 3.24017 27.7473 0.695496 45.7721C1.61946 52.0126 3.92684 57.7886 7.63277 62.8881C1.16 42.5408 10.8641 12.0198 45.3182 10.1769C8.56179 17.5737 5.54756 56.4254 16.8774 71.9106C20.1088 74.223 24.047 76.3032 27.975 77.6917C11.3286 66.3618 12.7171 21.2745 46.4745 11.3331C16.1807 25.6722 17.1097 70.2949 36.3008 79.7718C37.5253 79.9574 38.7636 80.0351 40.0017 80.0041C42.4087 80.0145 44.8106 79.7827 47.1712 79.3124C27.2884 72.3751 18.7304 26.3639 49.7159 11.3331L50.6399 12.2571C54.5781 15.2612 62.4342 23.3547 62.8937 23.1225C63.3531 22.8902 55.9564 15.4985 53.1845 12.4843C56.8854 14.1 64.7972 18.4926 64.9789 18.2654C65.1607 18.0382 57.355 13.181 53.1845 11.0958C57.3449 11.7875 64.9789 13.4083 64.9789 13.176C65.4434 12.7115 58.2739 11.0958 53.649 10.1719H53.6389Z" fill="url(#paint1_radial_86_2)"/>
</g>
<defs>
<radialGradient id="paint0_radial_86_2" cx="0" cy="0" r="1" gradientUnits="userSpaceOnUse" gradientTransform="translate(51.2263 9.32854) scale(58.1471 58.0607)">
<stop offset="0.022" stop-color="#FFF2EE"/>
<stop offset="0.251" stop-color="#F9826D"/>
<stop offset="0.406" stop-color="#F7270A"/>
<stop offset="0.5" stop-color="#E62308"/>
<stop offset="0.966" stop-color="#CF2109"/>
</radialGradient>
<radialGradient id="paint1_radial_86_2" cx="0" cy="0" r="1" gradientUnits="userSpaceOnUse" gradientTransform="translate(49.8892 11.2181) scale(115.982 115.806)">
<stop offset="0.022" stop-color="#FDE6DF"/>
<stop offset="0.64" stop-color="#F84A31"/>
<stop offset="0.843" stop-color="#CF2109"/>
</radialGradient>
<clipPath id="clip0_86_2">
<rect width="80" height="80" fill="white"/>
</clipPath>
</defs>
</svg>
